<svg width="40" height="40" viewBox="0 0 40 40" fill="none" xmlns="http://www.w3.org/2000/svg">
<path d="M31.6666 18.3334H13.05L21.1833 10.2C21.8333 9.55002 21.8333 8.48335 21.1833 7.83335C21.0291 7.67885 20.846 7.55627 20.6443 7.47263C20.4427 7.389 20.2266 7.34595 20.0083 7.34595C19.79 7.34595 19.5739 7.389 19.3722 7.47263C19.1706 7.55627 18.9875 7.67885 18.8333 7.83335L7.84996 18.8167C7.69545 18.9709 7.57287 19.154 7.48923 19.3556C7.4056 19.5573 7.36255 19.7734 7.36255 19.9917C7.36255 20.21 7.4056 20.4261 7.48923 20.6277C7.57287 20.8293 7.69545 21.0125 7.84996 21.1667L18.8333 32.15C18.9876 32.3043 19.1708 32.4267 19.3724 32.5102C19.574 32.5937 19.7901 32.6367 20.0083 32.6367C20.2265 32.6367 20.4426 32.5937 20.6442 32.5102C20.8458 32.4267 21.029 32.3043 21.1833 32.15C21.3376 31.9957 21.46 31.8125 21.5435 31.6109C21.627 31.4093 21.67 31.1932 21.67 30.975C21.67 30.7568 21.627 30.5407 21.5435 30.3391C21.46 30.1375 21.3376 29.9543 21.1833 29.8L13.05 21.6667H31.6666C32.5833 21.6667 33.3333 20.9167 33.3333 20C33.3333 19.0834 32.5833 18.3334 31.6666 18.3334Z" fill="#4CAF50"/>
</svg>
