<svg width="40" height="40" viewBox="0 0 40 40" fill="none" xmlns="http://www.w3.org/2000/svg">
<path d="M6.66659 6.66671H11.6666L14.9999 3.33337H24.9999L28.3333 6.66671H33.3333C34.2173 6.66671 35.0652 7.0179 35.6903 7.64302C36.3154 8.26814 36.6666 9.11599 36.6666 10V30C36.6666 30.8841 36.3154 31.7319 35.6903 32.3571C35.0652 32.9822 34.2173 33.3334 33.3333 33.3334H6.66659C5.78253 33.3334 4.93468 32.9822 4.30956 32.3571C3.68444 31.7319 3.33325 30.8841 3.33325 30V10C3.33325 9.11599 3.68444 8.26814 4.30956 7.64302C4.93468 7.0179 5.78253 6.66671 6.66659 6.66671ZM19.9999 11.6667C17.7898 11.6667 15.6702 12.5447 14.1074 14.1075C12.5446 15.6703 11.6666 17.7899 11.6666 20C11.6666 22.2102 12.5446 24.3298 14.1074 25.8926C15.6702 27.4554 17.7898 28.3334 19.9999 28.3334C22.2101 28.3334 24.3297 27.4554 25.8925 25.8926C27.4553 24.3298 28.3333 22.2102 28.3333 20C28.3333 17.7899 27.4553 15.6703 25.8925 14.1075C24.3297 12.5447 22.2101 11.6667 19.9999 11.6667ZM19.9999 15C21.326 15 22.5978 15.5268 23.5355 16.4645C24.4731 17.4022 24.9999 18.674 24.9999 20C24.9999 21.3261 24.4731 22.5979 23.5355 23.5356C22.5978 24.4733 21.326 25 19.9999 25C18.6738 25 17.4021 24.4733 16.4644 23.5356C15.5267 22.5979 14.9999 21.3261 14.9999 20C14.9999 18.674 15.5267 17.4022 16.4644 16.4645C17.4021 15.5268 18.6738 15 19.9999 15Z" fill="#4CAF50"/>
</svg>
