<svg width="70" height="70" viewBox="0 0 70 70" fill="none" xmlns="http://www.w3.org/2000/svg">
<path d="M56 7H70V59.5C70 62.2848 68.8938 64.9555 66.9246 66.9246C64.9555 68.8938 62.2848 70 59.5 70H10.5C7.71523 70 5.04451 68.8938 3.07538 66.9246C1.10625 64.9555 0 62.2848 0 59.5L0 0H56V7ZM56 14V59.5C56 60.4283 56.3687 61.3185 57.0251 61.9749C57.6815 62.6313 58.5717 63 59.5 63C60.4283 63 61.3185 62.6313 61.9749 61.9749C62.6313 61.3185 63 60.4283 63 59.5V14H56ZM7 7V59.5C7 60.4283 7.36875 61.3185 8.02513 61.9749C8.6815 62.6313 9.57174 63 10.5 63H49.595C49.1994 61.8756 48.9982 60.692 49 59.5V7H7ZM14 35H42V42H14V35ZM14 49H42V56H14V49ZM14 14H42V28H14V14Z" fill="#F4AC02"/>
</svg>
