<svg width="70" height="69" viewBox="0 0 70 69" fill="none" xmlns="http://www.w3.org/2000/svg">
<path fill-rule="evenodd" clip-rule="evenodd" d="M15.9072 3.49017e-07C14.9093 -0.000388048 13.9477 0.3234 13.2132 0.907111C12.4788 1.49082 12.0251 2.29179 11.9423 3.15107L10.2402 20.8204C10.1954 21.2861 10.041 21.739 9.78665 22.1514C9.53228 22.5638 9.18324 22.9271 8.76087 23.2189L2.98657 27.2119C2.05525 27.8553 1.30329 28.6715 0.786327 29.6C0.269363 30.5285 0.000625928 31.5455 0 32.5759V61.853C0 63.6757 0.837964 65.4238 2.32955 66.7126C3.82113 68.0015 5.84416 68.7255 7.95358 68.7255H31.8143C33.9237 68.7255 35.9468 68.0015 37.4383 66.7126C38.9299 65.4238 39.7679 63.6757 39.7679 61.853V32.5759C39.7677 31.5458 39.4996 30.529 38.9834 29.6005C38.4671 28.672 37.7159 27.8557 36.7853 27.2119L31.007 23.2189C30.5846 22.9271 30.2356 22.5638 29.9812 22.1514C29.7269 21.739 29.5725 21.2861 29.5277 20.8204L27.8256 3.15107C27.7428 2.29179 27.2891 1.49082 26.5547 0.907111C25.8202 0.3234 24.8586 -0.000388048 23.8607 3.49017e-07H15.9072ZM18.166 21.3908L19.5658 6.87255H20.2021L21.6019 21.3908C21.7366 22.7879 22.1996 24.1467 22.9627 25.3839C23.7258 26.6211 24.7729 27.7108 26.04 28.5864L31.8143 32.5759V61.853H7.95358V32.5759L13.7279 28.5864C14.995 27.7108 16.0421 26.6211 16.8052 25.3839C17.5683 24.1467 18.0313 22.7879 18.166 21.3908ZM49.69 20.6177C48.1865 20.617 46.7333 21.0852 45.5972 21.9361C44.4612 22.7871 43.7187 23.9637 43.5061 25.2498L41.4938 37.4142C41.0048 40.37 41.7681 43.3789 43.6432 45.8869C45.5183 48.395 48.3789 50.2332 51.6983 51.0631V61.853H49.7099C48.6552 61.853 47.6436 62.215 46.8978 62.8595C46.1521 63.5039 45.7331 64.3779 45.7331 65.2893C45.7331 66.2006 46.1521 67.0747 46.8978 67.7191C47.6436 68.3635 48.6552 68.7255 49.7099 68.7255H61.6402C62.6949 68.7255 63.7065 68.3635 64.4522 67.7191C65.198 67.0747 65.617 66.2006 65.617 65.2893C65.617 64.3779 65.198 63.5039 64.4522 62.8595C63.7065 62.215 62.6949 61.853 61.6402 61.853H59.6518V51.0631C62.9704 50.2332 65.8304 48.3955 67.7054 45.8883C69.5804 43.381 70.3442 40.3729 69.8563 37.4176L67.844 25.2532C67.6323 23.9665 66.8902 22.7891 65.754 21.9374C64.6179 21.0858 63.1642 20.6171 61.6601 20.6177H49.69ZM49.3718 38.3901L51.1654 27.4902H60.1768L61.9783 38.3901C62.1069 39.1707 62.04 39.9661 61.782 40.7224C61.524 41.4788 61.081 42.1784 60.483 42.7739C59.885 43.3695 59.1458 43.8471 58.3156 44.1744C57.4855 44.5017 56.5836 44.6711 55.6711 44.6711C54.7586 44.6711 53.8567 44.5017 53.0265 44.1744C52.1963 43.8471 51.4572 43.3695 50.8591 42.7739C50.2611 42.1784 49.8181 41.4788 49.5601 40.7224C49.3022 39.9661 49.2352 39.1707 49.3639 38.3901" fill="#14AE5C"/>
</svg>
