<svg width="70" height="70" viewBox="0 0 70 70" fill="none" xmlns="http://www.w3.org/2000/svg">
<path fill-rule="evenodd" clip-rule="evenodd" d="M49.2246 7.57762L49.1517 7.71178L48.93 8.11428L51.4558 9.63678L51.6833 9.22262L51.7533 9.10012L51.6337 9.0272L49.3558 7.65637L49.2246 7.57762ZM50.1783 13.9768L45.885 11.3897L38.1121 15.2105C35.056 16.6586 32.6894 19.2472 31.5204 22.4205L31.6925 22.333C33.4138 21.4709 35.3463 21.1207 37.2606 21.3239C39.175 21.527 40.9909 22.2751 42.4929 23.4793C44.0008 24.6868 46.0221 25.0455 47.8567 24.436L50.9338 23.4093L50.9046 23.0214L50.1783 13.9768ZM55.3029 25.6376C55.4347 25.2388 55.4489 24.8105 55.3438 24.4039C55.3438 24.0208 55.3321 23.6378 55.3088 23.2547L55.265 22.6918L54.5008 13.163L55.5363 11.2905C55.7114 10.9897 55.8729 10.6812 56.0204 10.366C56.175 10.0276 56.3442 9.56678 56.3704 9.00387C56.405 8.25247 56.2064 7.50876 55.8017 6.8747C55.5394 6.48196 55.206 6.14168 54.8188 5.87137C54.5327 5.67158 54.2378 5.48473 53.935 5.31137L53.8883 5.2822L51.5579 3.87637C51.2441 3.68147 50.9231 3.49856 50.5954 3.32804C50.1513 3.10035 49.6666 2.96258 49.1692 2.92262C48.3822 2.87609 47.6014 3.08588 46.9437 3.52053C46.5331 3.80312 46.1823 4.16389 45.9113 4.5822C45.7217 4.86803 45.5292 5.21803 45.3512 5.53887L44.4092 7.23928L36.1637 11.2935L35.6737 11.5355C30.9342 13.971 27.5917 18.5501 26.5883 23.8818C26.5592 24.0276 26.5329 24.1822 26.4892 24.436L26.4863 24.4564L26.3988 24.9639C25.6146 29.3276 23.4767 33.3339 20.2883 36.4147L17.9433 38.7218C16.4733 40.1684 15.2892 41.3322 14.4025 42.3384C13.4983 43.3593 12.7692 44.3597 12.3317 45.5089C11.7555 47.0272 11.5509 48.6614 11.7351 50.2749C11.9193 51.8884 12.4869 53.4344 13.3904 54.7839C14.0788 55.8047 15.0179 56.6097 16.1292 57.3914C17.2171 58.1584 18.6346 59.0101 20.3875 60.0689L22.4671 61.323C24.22 62.3759 25.6375 63.2305 26.8188 63.8314C28.0204 64.4439 29.1696 64.8989 30.3917 65.0126C31.9951 65.1582 33.6092 64.8904 35.0797 64.2348C36.5503 63.5792 37.8282 62.5576 38.7917 61.2676C39.5325 60.2934 39.9962 59.1355 40.39 57.8172C40.7779 56.5193 41.1512 54.8684 41.615 52.8151L42.3587 49.5426L42.4725 49.0468C43.4828 44.7398 45.8275 40.862 49.1721 37.9664L49.1896 37.9518L49.6008 37.5872C52.9691 34.4864 55.0096 30.2065 55.3029 25.6376ZM50.4467 28.1839L49.2421 28.5864C47.6466 29.1192 45.943 29.2435 44.287 28.948C42.6311 28.6524 41.0756 27.9465 39.7629 26.8947C38.9134 26.213 37.8859 25.7895 36.8027 25.6748C35.7195 25.56 34.6261 25.7587 33.6525 26.2472L30.1933 27.9768C29.0427 32.1934 26.8223 36.0413 23.7475 39.1476L23.3683 39.5268L21.0671 41.7843C19.5271 43.3009 18.4508 44.3597 17.6808 45.2318C16.9137 46.101 16.5813 46.6376 16.4179 47.0693C15.7529 48.8193 15.9804 50.8026 17.0158 52.3397C17.2696 52.713 17.7071 53.1564 18.6463 53.8126C19.5913 54.4805 20.8746 55.2534 22.715 56.3618L24.6546 57.5285C26.495 58.6397 27.7783 59.4097 28.8021 59.9318C29.8229 60.4509 30.3946 60.6201 30.8 60.658C32.5092 60.8184 34.2067 60.0747 35.3033 58.628C35.5775 58.2693 35.8575 57.6976 36.1988 56.563C36.5371 55.4255 36.8813 53.9205 37.3654 51.7709L38.0946 48.5626L38.2171 48.0318C39.3941 43.0282 42.063 38.5 45.8704 35.0468L46.27 34.6939L46.2817 34.6822L46.655 34.3526C48.4675 32.6886 49.7804 30.5525 50.4467 28.1839Z" fill="#0D99FF"/>
</svg>
