<svg width="71" height="70" viewBox="0 0 71 70" fill="none" xmlns="http://www.w3.org/2000/svg">
<path d="M42.0667 3.22402e-06C41.3732 -0.000763197 40.6863 0.135124 40.0453 0.399902C39.4044 0.664679 38.8218 1.05316 38.331 1.54314C37.8402 2.03312 37.4508 2.61501 37.185 3.25555C36.9191 3.89609 36.7821 4.58274 36.7817 5.27625V12.775C25.0567 14.945 15.7963 24.185 13.6234 35.875H6.28504C5.58229 35.8585 4.88333 35.9826 4.22926 36.2401C3.57518 36.4976 2.97919 36.8833 2.47632 37.3745C1.97346 37.8657 1.57387 38.4524 1.30105 39.1003C1.02824 39.7481 0.887695 40.4439 0.887695 41.1469C0.887695 41.8498 1.02824 42.5457 1.30105 43.1935C1.57387 43.8413 1.97346 44.4281 2.47632 44.9193C2.97919 45.4105 3.57518 45.7961 4.22926 46.0536C4.88333 46.3111 5.58229 46.4353 6.28504 46.4188H13.6234C14.8745 53.0475 18.4012 59.0312 23.5943 63.3366C28.7874 67.642 35.321 69.9988 42.0667 70C58.0209 70 71 57.0529 71 41.1454C71 27.0404 60.7917 15.26 47.3546 12.7779V5.27625C47.3546 2.35959 44.9863 3.22402e-06 42.0667 3.22402e-06ZM14.688 9.26334C13.9837 9.24679 13.2832 9.37121 12.6277 9.6293C11.9722 9.88739 11.3749 10.2739 10.8709 10.7662C10.3669 11.2584 9.96648 11.8465 9.69307 12.4958C9.41966 13.145 9.27881 13.8424 9.27881 14.5469C9.27881 15.2514 9.41966 15.9487 9.69307 16.598C9.96648 17.2473 10.3669 17.8353 10.8709 18.3276C11.3749 18.8198 11.9722 19.2064 12.6277 19.4645C13.2832 19.7225 13.9837 19.847 14.688 19.8304C16.0915 19.8304 17.4377 19.2737 18.4312 18.2823C19.4247 17.291 19.9844 15.946 19.9875 14.5425C19.9875 11.6258 17.6075 9.26334 14.688 9.26334ZM42.0667 22.8433C52.1817 22.8433 60.4213 31.0508 60.4213 41.1454C60.4213 51.2371 52.1817 59.4563 42.0667 59.4563C31.9459 59.4563 23.7121 51.2371 23.7121 41.1454C23.7121 31.0508 31.9488 22.8433 42.0667 22.8433ZM42.0171 29.855C35.755 29.855 30.6625 34.93 30.6625 41.1746C30.6625 47.4192 35.755 52.5 42.0171 52.5C45.0237 52.5016 47.908 51.3097 50.0364 49.1862C52.1648 47.0627 53.3634 44.1812 53.3688 41.1746C53.3611 38.1695 52.1615 35.2903 50.0333 33.1687C47.9051 31.047 45.0222 29.8564 42.0171 29.8579M42.0171 37.7825C42.9191 37.7825 43.7841 38.1408 44.4219 38.7786C45.0597 39.4164 45.418 40.2814 45.418 41.1833C45.418 42.0853 45.0597 42.9503 44.4219 43.5881C43.7841 44.2259 42.9191 44.5842 42.0171 44.5842C40.1359 44.5842 38.6046 43.0529 38.6046 41.1775C38.6046 39.2992 40.1359 37.7825 42.0171 37.7825Z" fill="#E94444"/>
</svg>
