<svg width="60" height="60" viewBox="0 0 60 60" fill="none" xmlns="http://www.w3.org/2000/svg">
<path d="M52.6 30.325C52.95 30.325 53.275 30.475 53.55 30.75L56.75 33.95C57.3 34.475 57.3 35.35 56.75 35.875L54.25 38.375L49.125 33.25L51.625 30.75C51.9 30.475 52.25 30.325 52.6 30.325ZM47.675 34.7L52.8 39.825L37.65 55H32.5V49.85L47.675 34.7ZM27.5 47.5L22.5 52.5H12.5C9.75 52.5 7.5 50.25 7.5 47.5V12.5C7.5 9.75 9.75 7.5 12.5 7.5H22.95C24 4.6 26.75 2.5 30 2.5C33.25 2.5 36 4.6 37.05 7.5H47.5C50.25 7.5 52.5 9.75 52.5 12.5V22.5L47.5 27.5V12.5H42.5V17.5H17.5V12.5H12.5V47.5H27.5ZM30 7.5C28.625 7.5 27.5 8.625 27.5 10C27.5 11.375 28.625 12.5 30 12.5C31.375 12.5 32.5 11.375 32.5 10C32.5 8.625 31.375 7.5 30 7.5Z" fill="#222222"/>
</svg>
