<svg width="70" height="70" viewBox="0 0 70 70" fill="none" xmlns="http://www.w3.org/2000/svg">
<path d="M58.3335 14.5833V55.4167H11.6668V14.5833H58.3335ZM58.3335 8.75H11.6668C8.42933 8.75 5.8335 11.3458 5.8335 14.5833V55.4167C5.8335 58.6542 8.42933 61.25 11.6668 61.25H58.3335C61.571 61.25 64.1668 58.6542 64.1668 55.4167V14.5833C64.1668 11.3458 61.571 8.75 58.3335 8.75ZM52.5002 43.75H17.5002V49.5833H52.5002V43.75ZM29.1668 20.4167H17.5002V37.9167H29.1668V20.4167ZM35.0002 26.25H52.5002V20.4167H35.0002V26.25ZM52.5002 32.0833H35.0002V37.9167H52.5002V32.0833Z" fill="#484848"/>
</svg>
