<svg width="128" height="128" viewBox="0 0 128 128" fill="none" xmlns="http://www.w3.org/2000/svg">
<path d="M113.334 69.3332V45.3332C113.334 38.2607 110.524 31.478 105.523 26.477C100.522 21.476 93.7394 18.6665 86.667 18.6665H41.3337C34.2612 18.6665 27.4784 21.476 22.4775 26.477C17.4765 31.478 14.667 38.2607 14.667 45.3332V82.6665C14.667 86.1684 15.3567 89.636 16.6969 92.8714C18.037 96.1067 20.0012 99.0465 22.4775 101.523C27.4784 106.524 34.2612 109.333 41.3337 109.333H74.7203" stroke="#484848" stroke-width="8" stroke-linecap="round" stroke-linejoin="round"/>
<path d="M16.0537 90.6667L30.667 73.6C32.5862 71.694 35.105 70.5095 37.7971 70.2471C40.4892 69.9847 43.1893 70.6604 45.4404 72.16C47.6915 73.6596 50.3916 74.3354 53.0837 74.073C55.7758 73.8106 58.2946 72.6261 60.2137 70.72L72.6404 58.2934C76.211 54.7106 80.9385 52.5131 85.9792 52.0931C91.02 51.673 96.046 53.0577 100.16 56L113.334 66.1867M42.7204 54.24C43.883 54.233 45.0329 53.9971 46.1043 53.5457C47.1758 53.0943 48.1479 52.4363 48.965 51.6092C49.7822 50.7822 50.4284 49.8023 50.8669 48.7254C51.3053 47.6486 51.5274 46.496 51.5204 45.3334C51.5134 44.1707 51.2774 43.0209 50.826 41.9494C50.3747 40.8779 49.7166 39.9059 48.8896 39.0887C48.0625 38.2716 47.0826 37.6253 46.0058 37.1869C44.929 36.7484 43.7763 36.5264 42.6137 36.5334C40.2657 36.5475 38.0194 37.4938 36.3691 39.1642C34.7188 40.8345 33.7996 43.092 33.8137 45.44C33.8279 47.7881 34.7742 50.0343 36.4445 51.6847C38.1148 53.335 40.3723 54.2542 42.7204 54.24Z" stroke="#484848" stroke-width="8" stroke-linecap="round" stroke-linejoin="round"/>
<path d="M99.7715 80V106.667" stroke="#484848" stroke-width="8" stroke-miterlimit="10" stroke-linecap="round"/>
<path d="M112.001 91.2263L101.51 80.7357C101.282 80.5067 101.011 80.325 100.713 80.201C100.414 80.077 100.094 80.0132 99.7713 80.0132C99.4482 80.0132 99.1283 80.077 98.8299 80.201C98.5316 80.325 98.2606 80.5067 98.0327 80.7357L87.542 91.2263" stroke="#484848" stroke-width="8" stroke-linecap="round" stroke-linejoin="round"/>
</svg>
