<svg width="144" height="144" viewBox="0 0 144 144" fill="none" xmlns="http://www.w3.org/2000/svg">
<path d="M72 126L120.786 100.752C122.682 99.768 123.63 99.282 124.32 98.556C124.931 97.9188 125.394 97.1547 125.676 96.318C126 95.364 126 94.302 126 92.166V45.198M72 126L23.214 100.752C21.318 99.768 20.37 99.282 19.68 98.556C19.0688 97.9188 18.6058 97.1547 18.324 96.318C18 95.364 18 94.296 18 92.154V45.198M72 126V71.622M126 45.198L72 71.622M126 45.198L99 31.218M18 45.198L67.614 19.524C69.222 18.696 70.02 18.276 70.866 18.114C71.6151 17.9698 72.3849 17.9698 73.134 18.114C73.974 18.276 74.778 18.696 76.38 19.524L99 31.218M18 45.198L45 58.416M72 71.622L45 58.41M99 31.218L45 58.41M45 58.41V71.622" stroke="#222222" stroke-width="5" stroke-linecap="round" stroke-linejoin="round"/>
</svg>
