<svg width="163" height="144" viewBox="0 0 163 144" fill="none" xmlns="http://www.w3.org/2000/svg">
<path d="M138 91.1667C149.506 91.1667 158.833 100.494 158.833 112C158.833 123.506 149.506 132.833 138 132.833C126.494 132.833 117.167 123.506 117.167 112C117.167 100.494 126.494 91.1667 138 91.1667ZM138 95.3334C133.58 95.3334 129.341 97.0894 126.215 100.215C123.089 103.341 121.333 107.58 121.333 112C121.333 116.42 123.089 120.66 126.215 123.785C129.341 126.911 133.58 128.667 138 128.667C142.42 128.667 146.66 126.911 149.785 123.785C152.911 120.66 154.667 116.42 154.667 112C154.667 107.58 152.911 103.341 149.785 100.215C146.66 97.0894 142.42 95.3334 138 95.3334ZM145.365 104.46C145.739 104.083 146.243 103.863 146.774 103.844C147.305 103.826 147.823 104.012 148.222 104.364C148.621 104.715 148.87 105.205 148.919 105.735C148.968 106.264 148.813 106.792 148.485 107.21L148.313 107.406L136.675 119.046C136.278 119.443 135.749 119.68 135.188 119.713C134.627 119.746 134.074 119.571 133.633 119.223L133.433 119.046L127.688 113.3C127.31 112.926 127.09 112.422 127.072 111.891C127.054 111.359 127.239 110.841 127.591 110.443C127.942 110.044 128.433 109.794 128.962 109.745C129.491 109.697 130.019 109.852 130.438 110.179L130.633 110.354L135.054 114.773L145.367 104.46H145.365Z" fill="#222222"/>
<path d="M52.8125 15.125H77.1875C78.2649 15.125 79.2983 15.553 80.0601 16.3149C80.822 17.0767 81.25 18.1101 81.25 19.1875V27.3125H48.75V19.1875C48.75 18.1101 49.178 17.0767 49.9399 16.3149C50.7017 15.553 51.7351 15.125 52.8125 15.125ZM89.375 27.3125V19.1875C89.375 15.9552 88.091 12.8552 85.8054 10.5696C83.5198 8.28404 80.4198 7 77.1875 7L52.8125 7C49.5802 7 46.4802 8.28404 44.1946 10.5696C41.909 12.8552 40.625 15.9552 40.625 19.1875V27.3125H12.1875C11.1101 27.3125 10.0767 27.7405 9.31488 28.5024C8.55301 29.2642 8.125 30.2976 8.125 31.375C8.125 32.4524 8.55301 33.4858 9.31488 34.2476C10.0767 35.0095 11.1101 35.4375 12.1875 35.4375H16.5588L23.4894 122.05C23.8162 126.122 25.6649 129.922 28.6672 132.692C31.6696 135.463 35.6053 137.001 39.6906 137H90.3094C94.3947 137.001 98.3304 135.463 101.333 132.692C104.335 129.922 106.184 126.122 106.511 122.05L113.441 35.4375H117.812C118.89 35.4375 119.923 35.0095 120.685 34.2476C121.447 33.4858 121.875 32.4524 121.875 31.375C121.875 30.2976 121.447 29.2642 120.685 28.5024C119.923 27.7405 118.89 27.3125 117.812 27.3125H89.375ZM105.284 35.4375L98.41 121.4C98.2466 123.436 97.3222 125.336 95.8211 126.721C94.3199 128.106 92.352 128.875 90.3094 128.875H39.6906C37.648 128.875 35.6801 128.106 34.1789 126.721C32.6778 125.336 31.7534 123.436 31.59 121.4L24.7163 35.4375H105.284ZM44.4519 43.5625C45.5271 43.5004 46.583 43.8677 47.3874 44.5838C48.1919 45.2999 48.6791 46.3061 48.7419 47.3812L52.8044 116.444C52.8471 117.506 52.4714 118.543 51.758 119.332C51.0446 120.121 50.0505 120.598 48.9889 120.662C47.9274 120.726 46.8832 120.371 46.0805 119.673C45.2778 118.976 44.7806 117.991 44.6956 116.931L40.625 47.8688C40.592 47.335 40.6647 46.8001 40.8389 46.2945C41.0132 45.789 41.2855 45.3228 41.6402 44.9227C41.995 44.5226 42.4253 44.1965 42.9064 43.9631C43.3875 43.7297 43.9099 43.5936 44.4437 43.5625H44.4519ZM85.5481 43.5625C86.0819 43.5936 86.6044 43.7297 87.0855 43.9631C87.5666 44.1965 87.9968 44.5226 88.3516 44.9227C88.7064 45.3228 88.9787 45.789 89.1529 46.2945C89.3272 46.8001 89.3999 47.335 89.3669 47.8688L85.3044 116.931C85.2827 117.471 85.1535 118.001 84.9245 118.491C84.6954 118.98 84.371 119.419 83.9703 119.781C83.5696 120.144 83.1006 120.422 82.5908 120.601C82.081 120.78 81.5407 120.856 81.0013 120.823C80.462 120.791 79.9346 120.651 79.4499 120.413C78.9652 120.174 78.533 119.841 78.1786 119.433C77.8243 119.025 77.5548 118.551 77.386 118.037C77.2172 117.524 77.1525 116.982 77.1956 116.444L81.2581 47.3812C81.321 46.3061 81.8081 45.2999 82.6126 44.5838C83.417 43.8677 84.4729 43.5004 85.5481 43.5625ZM65 43.5625C66.0774 43.5625 67.1108 43.9905 67.8726 44.7524C68.6345 45.5142 69.0625 46.5476 69.0625 47.625V116.688C69.0625 117.765 68.6345 118.798 67.8726 119.56C67.1108 120.322 66.0774 120.75 65 120.75C63.9226 120.75 62.8892 120.322 62.1274 119.56C61.3655 118.798 60.9375 117.765 60.9375 116.688V47.625C60.9375 46.5476 61.3655 45.5142 62.1274 44.7524C62.8892 43.9905 63.9226 43.5625 65 43.5625Z" fill="#222222"/>
</svg>
