<svg width="60" height="60" viewBox="0 0 60 60" fill="none" xmlns="http://www.w3.org/2000/svg">
<path d="M55 30C55 32.8333 54.2917 35.4275 52.875 37.7825C51.4583 40.1375 49.5625 41.9392 47.1875 43.1875C46.6042 43.5208 46.1767 44 45.905 44.625C45.6333 45.25 45.6233 45.875 45.875 46.5C46.125 47.1667 46.5625 47.6458 47.1875 47.9375C47.8125 48.2292 48.4167 48.2083 49 47.875C52.25 46.2083 54.8958 43.8025 56.9375 40.6575C58.9792 37.5125 60 33.96 60 30C60 26.0833 59.01 22.5625 57.03 19.4375C55.05 16.3125 52.4567 13.9167 49.25 12.25C48.6667 11.9167 48.0517 11.885 47.405 12.155C46.7583 12.425 46.29 12.8942 46 13.5625C45.7083 14.1458 45.6875 14.75 45.9375 15.375C46.1875 16 46.6042 16.4792 47.1875 16.8125C49.5625 18.0625 51.4583 19.865 52.875 22.22C54.2917 24.575 55 27.1683 55 30ZM25 50C30.5417 50 35.2608 48.0525 39.1575 44.1575C43.0542 40.2625 45.0017 35.5433 45 30C44.9983 24.4567 43.05 19.7375 39.155 15.8425C35.26 11.9475 30.5417 10 25 10C22.6667 10 20.4583 10.375 18.375 11.125C16.2917 11.875 14.3958 12.9167 12.6875 14.25C12.1458 14.6667 11.875 15.2083 11.875 15.875C11.875 16.5417 12.125 17.125 12.625 17.625C13.0833 18.0833 13.6567 18.3333 14.345 18.375C15.0333 18.4167 15.6683 18.2292 16.25 17.8125C17.5 16.8958 18.865 16.1983 20.345 15.72C21.825 15.2417 23.3767 15.0017 25 15C29.1667 15 32.7083 16.4583 35.625 19.375C38.5417 22.2917 40 25.8333 40 30C40 34.1667 38.5417 37.7083 35.625 40.625C32.7083 43.5417 29.1667 45 25 45C23.375 45 21.8225 44.76 20.3425 44.28C18.8625 43.8 17.4983 43.1025 16.25 42.1875C15.6667 41.7708 15.0308 41.5833 14.3425 41.625C13.6542 41.6667 13.0817 41.9167 12.625 42.375C12.125 42.875 11.875 43.4583 11.875 44.125C11.875 44.7917 12.1458 45.3333 12.6875 45.75C14.3958 47.0833 16.2917 48.125 18.375 48.875C20.4583 49.625 22.6667 50 25 50ZM9.5 32.5H25C25.7083 32.5 26.3017 32.26 26.78 31.78C27.2583 31.3 27.4983 30.7067 27.5 30C27.5017 29.2933 27.2617 28.7 26.78 28.22C26.2983 27.74 25.705 27.5 25 27.5H9.5L11.75 25.25C12.2083 24.7917 12.4375 24.2083 12.4375 23.5C12.4375 22.7917 12.2083 22.2083 11.75 21.75C11.2917 21.2917 10.7083 21.0625 10 21.0625C9.29167 21.0625 8.70833 21.2917 8.25 21.75L1.75 28.25C1.25 28.75 1 29.3333 1 30C1 30.6667 1.25 31.25 1.75 31.75L8.25 38.25C8.70833 38.7083 9.29167 38.9375 10 38.9375C10.7083 38.9375 11.2917 38.7083 11.75 38.25C12.2083 37.7917 12.4375 37.2083 12.4375 36.5C12.4375 35.7917 12.2083 35.2083 11.75 34.75L9.5 32.5Z" fill="#4CAF50"/>
</svg>
