<svg width="60" height="60" viewBox="0 0 60 60" fill="none" xmlns="http://www.w3.org/2000/svg">
<path d="M5 30C5 32.8333 5.70833 35.4275 7.125 37.7825C8.54167 40.1375 10.4375 41.9392 12.8125 43.1875C13.3958 43.5208 13.8233 44 14.095 44.625C14.3667 45.25 14.3767 45.875 14.125 46.5C13.875 47.1667 13.4375 47.6458 12.8125 47.9375C12.1875 48.2292 11.5833 48.2083 11 47.875C7.75 46.2083 5.10417 43.8025 3.0625 40.6575C1.02083 37.5125 0 33.96 0 30C0 26.0833 0.99 22.5625 2.97 19.4375C4.95 16.3125 7.54333 13.9167 10.75 12.25C11.3333 11.9167 11.9483 11.885 12.595 12.155C13.2417 12.425 13.71 12.8942 14 13.5625C14.2917 14.1458 14.3125 14.75 14.0625 15.375C13.8125 16 13.3958 16.4792 12.8125 16.8125C10.4375 18.0625 8.54167 19.865 7.125 22.22C5.70833 24.575 5 27.1683 5 30ZM35 50C29.4583 50 24.7392 48.0525 20.8425 44.1575C16.9458 40.2625 14.9983 35.5433 15 30C15.0017 24.4567 16.95 19.7375 20.845 15.8425C24.74 11.9475 29.4583 10 35 10C37.3333 10 39.5417 10.375 41.625 11.125C43.7083 11.875 45.6042 12.9167 47.3125 14.25C47.8542 14.6667 48.125 15.2083 48.125 15.875C48.125 16.5417 47.875 17.125 47.375 17.625C46.9167 18.0833 46.3433 18.3333 45.655 18.375C44.9667 18.4167 44.3317 18.2292 43.75 17.8125C42.5 16.8958 41.135 16.1983 39.655 15.72C38.175 15.2417 36.6233 15.0017 35 15C30.8333 15 27.2917 16.4583 24.375 19.375C21.4583 22.2917 20 25.8333 20 30C20 34.1667 21.4583 37.7083 24.375 40.625C27.2917 43.5417 30.8333 45 35 45C36.625 45 38.1775 44.76 39.6575 44.28C41.1375 43.8 42.5017 43.1025 43.75 42.1875C44.3333 41.7708 44.9692 41.5833 45.6575 41.625C46.3458 41.6667 46.9183 41.9167 47.375 42.375C47.875 42.875 48.125 43.4583 48.125 44.125C48.125 44.7917 47.8542 45.3333 47.3125 45.75C45.6042 47.0833 43.7083 48.125 41.625 48.875C39.5417 49.625 37.3333 50 35 50ZM50.5 32.5H35C34.2917 32.5 33.6983 32.26 33.22 31.78C32.7417 31.3 32.5017 30.7067 32.5 30C32.4983 29.2933 32.7383 28.7 33.22 28.22C33.7017 27.74 34.295 27.5 35 27.5H50.5L48.25 25.25C47.7917 24.7917 47.5625 24.2083 47.5625 23.5C47.5625 22.7917 47.7917 22.2083 48.25 21.75C48.7083 21.2917 49.2917 21.0625 50 21.0625C50.7083 21.0625 51.2917 21.2917 51.75 21.75L58.25 28.25C58.75 28.75 59 29.3333 59 30C59 30.6667 58.75 31.25 58.25 31.75L51.75 38.25C51.2917 38.7083 50.7083 38.9375 50 38.9375C49.2917 38.9375 48.7083 38.7083 48.25 38.25C47.7917 37.7917 47.5625 37.2083 47.5625 36.5C47.5625 35.7917 47.7917 35.2083 48.25 34.75L50.5 32.5Z" fill="#E94444"/>
</svg>
