<svg width="67" height="67" viewBox="0 0 67 67" fill="none" xmlns="http://www.w3.org/2000/svg">
<path d="M33.5 58.625C27.0792 58.625 21.4847 56.4968 16.7165 52.2405C11.9483 47.9841 9.21436 42.6678 8.51458 36.2917H14.2375C14.8889 41.1306 17.0413 45.1319 20.6946 48.2958C24.348 51.4597 28.6164 53.0417 33.5 53.0417C38.9437 53.0417 43.5621 51.1461 47.355 47.355C51.148 43.564 53.0435 38.9456 53.0417 33.5C53.0398 28.0544 51.1443 23.437 47.355 19.6478C43.5658 15.8585 38.9475 13.9621 33.5 13.9583C30.2896 13.9583 27.2885 14.7028 24.4969 16.1917C21.7052 17.6806 19.3556 19.7278 17.4479 22.3333H25.125V27.9167H8.375V11.1667H13.9583V17.7271C16.3312 14.7493 19.2281 12.4462 22.6488 10.8177C26.0695 9.18924 29.6866 8.375 33.5 8.375C36.9896 8.375 40.2586 9.03849 43.3071 10.3655C46.3556 11.6924 49.0077 13.4828 51.2634 15.7366C53.519 17.9904 55.3104 20.6425 56.6373 23.6929C57.9643 26.7432 58.6269 30.0123 58.625 33.5C58.6231 36.9877 57.9606 40.2568 56.6373 43.3071C55.3141 46.3575 53.5228 49.0096 51.2634 51.2634C49.004 53.5172 46.3519 55.3085 43.3071 56.6373C40.2623 57.9662 36.9933 58.6287 33.5 58.625ZM41.3167 45.225L30.7083 34.6167V19.5417H36.2917V32.3833L45.225 41.3167L41.3167 45.225Z" fill="#4CAF50"/>
</svg>
