<svg width="144" height="144" viewBox="0 0 144 144" fill="none" xmlns="http://www.w3.org/2000/svg">
<path d="M117 18H27C24.6131 18 22.3239 18.9482 20.636 20.636C18.9482 22.3239 18 24.6131 18 27V117C18 119.387 18.9482 121.676 20.636 123.364C22.3239 125.052 24.6131 126 27 126H117C119.387 126 121.676 125.052 123.364 123.364C125.052 121.676 126 119.387 126 117V27C126 24.6131 125.052 22.3239 123.364 20.636C121.676 18.9482 119.387 18 117 18Z" stroke="#222222" stroke-width="6" stroke-linecap="round" stroke-linejoin="round"/>
<path d="M63 93L78 105L102 75M42 45H102M42 69H66" stroke="#222222" stroke-width="6" stroke-linecap="round" stroke-linejoin="round"/>
</svg>
