<svg width="144" height="144" viewBox="0 0 144 144" fill="none" xmlns="http://www.w3.org/2000/svg">
<path d="M78 132C73.092 132 68.4 129.954 59.022 125.856C48.072 121.08 39.696 117.42 33.882 114H12M78 132C82.908 132 87.6 129.954 96.978 125.856C120.324 115.668 132 110.58 132 102V39M78 132V66M24 39V57" stroke="#222222" stroke-width="6" stroke-linecap="round" stroke-linejoin="round"/>
<path d="M108.822 24.096L47.202 53.91M12 78H30M12 96H30M55.956 58.146L38.43 49.668C28.812 45.012 24 42.684 24 39C24 35.316 28.812 32.988 38.43 28.332L55.95 19.854C66.78 14.616 72.18 12 78 12C83.82 12 89.226 14.616 100.044 19.854L117.57 28.332C127.188 32.988 132 35.316 132 39C132 42.684 127.188 45.012 117.57 49.668L100.05 58.146C89.22 63.384 83.82 66 78 66C72.18 66 66.774 63.384 55.956 58.146Z" stroke="#222222" stroke-width="6" stroke-linecap="round" stroke-linejoin="round"/>
</svg>
