<svg width="30" height="31" viewBox="0 0 30 31" fill="none" xmlns="http://www.w3.org/2000/svg">
<path d="M27.5 3H2.5C2.16848 3 1.85054 3.1317 1.61612 3.36612C1.3817 3.60054 1.25 3.91848 1.25 4.25V14.25C1.25 14.5815 1.3817 14.8995 1.61612 15.1339C1.85054 15.3683 2.16848 15.5 2.5 15.5H6.25V26.75C6.25 27.0815 6.3817 27.3995 6.61612 27.6339C6.85054 27.8683 7.16848 28 7.5 28H22.5C22.8315 28 23.1495 27.8683 23.3839 27.6339C23.6183 27.3995 23.75 27.0815 23.75 26.75V15.5H27.5C27.8315 15.5 28.1495 15.3683 28.3839 15.1339C28.6183 14.8995 28.75 14.5815 28.75 14.25V4.25C28.75 3.91848 28.6183 3.60054 28.3839 3.36612C28.1495 3.1317 27.8315 3 27.5 3ZM8.75 25.5V23C9.41304 23 10.0489 23.2634 10.5178 23.7322C10.9866 24.2011 11.25 24.837 11.25 25.5H8.75ZM21.25 25.5H18.75C18.75 24.837 19.0134 24.2011 19.4822 23.7322C19.9511 23.2634 20.587 23 21.25 23V25.5ZM21.25 20.5C19.9239 20.5 18.6521 21.0268 17.7145 21.9645C16.7768 22.9021 16.25 24.1739 16.25 25.5H13.75C13.75 24.1739 13.2232 22.9021 12.2855 21.9645C11.3479 21.0268 10.0761 20.5 8.75 20.5V10.5H21.25V20.5ZM26.25 13H23.75V9.25C23.75 8.91848 23.6183 8.60054 23.3839 8.36612C23.1495 8.1317 22.8315 8 22.5 8H7.5C7.16848 8 6.85054 8.1317 6.61612 8.36612C6.3817 8.60054 6.25 8.91848 6.25 9.25V13H3.75V5.5H26.25V13ZM15 19.25C15.7417 19.25 16.4667 19.0301 17.0834 18.618C17.7001 18.206 18.1807 17.6203 18.4645 16.9351C18.7484 16.2498 18.8226 15.4958 18.6779 14.7684C18.5333 14.041 18.1761 13.3728 17.6517 12.8483C17.1272 12.3239 16.459 11.9667 15.7316 11.8221C15.0042 11.6774 14.2502 11.7516 13.5649 12.0355C12.8797 12.3193 12.294 12.7999 11.882 13.4166C11.4699 14.0333 11.25 14.7583 11.25 15.5C11.25 16.4946 11.6451 17.4484 12.3483 18.1517C13.0516 18.8549 14.0054 19.25 15 19.25ZM15 14.25C15.2472 14.25 15.4889 14.3233 15.6945 14.4607C15.9 14.598 16.0602 14.7932 16.1549 15.0216C16.2495 15.2501 16.2742 15.5014 16.226 15.7439C16.1778 15.9863 16.0587 16.2091 15.8839 16.3839C15.7091 16.5587 15.4863 16.6778 15.2439 16.726C15.0014 16.7742 14.7501 16.7495 14.5216 16.6549C14.2932 16.5602 14.098 16.4 13.9607 16.1945C13.8233 15.9889 13.75 15.7472 13.75 15.5C13.75 15.1685 13.8817 14.8505 14.1161 14.6161C14.3505 14.3817 14.6685 14.25 15 14.25Z" fill="white"/>
</svg>
